<?xml version="1.0"?>
<svg xmlns="http://www.w3.org/2000/svg" viewBox="0 0 50 50">
    <path style="text-indent:0;fill: #3c503c; text-align:start;line-height:normal;text-transform:none;block-progression:tb;-inkscape-font-specification:Bitstream Vera Sans" d="M 24.8125 2 C 20.695056 2.028954 17.992488 2.9460957 17.75 3.03125 A 1.0001 1.0001 0 0 0 17.59375 3.0625 A 1.0001 1.0001 0 0 0 17.5625 3.09375 A 1.0001 1.0001 0 0 0 17.53125 3.09375 A 1.0001 1.0001 0 0 0 17.375 3.1875 A 1.0001 1.0001 0 0 0 17.34375 3.21875 A 1.0001 1.0001 0 0 0 17.3125 3.25 A 1.0001 1.0001 0 0 0 17.28125 3.28125 A 1.0001 1.0001 0 0 0 17.09375 3.46875 L 14.53125 6.03125 C 12.34103 6.130229 10.122528 6.8903439 8.25 8.15625 C 6.2429208 9.5131181 4.6081385 11.442446 4.03125 13.75 A 1.0001 1.0001 0 0 0 4.15625 14.5625 C 3.398979 15.942515 2 18.859421 2 21.90625 A 1.0001 1.0001 0 0 0 2.8125 22.875 C 6.4274827 23.602855 7.9988288 26.270663 8.09375 26.4375 C 7.8492332 29.781561 8.2505666 32.410143 8.875 34.34375 C 9.493136 36.257856 10.30596 37.467118 10.8125 38.125 L 9.09375 41.5625 A 1.0001 1.0001 0 0 0 9.28125 42.6875 C 12.954632 46.648947 19.379113 48 25 48 C 30.620887 48 37.045368 46.648947 40.71875 42.6875 A 1.0001 1.0001 0 0 0 40.90625 41.5625 L 39.1875 38.125 C 39.69404 37.467118 40.506864 36.257856 41.125 34.34375 C 41.749433 32.410143 42.150767 29.781561 41.90625 26.4375 C 42.001171 26.270663 43.572517 23.602855 47.1875 22.875 A 1.0001 1.0001 0 0 0 48 21.90625 C 48 18.859421 46.601021 15.942515 45.84375 14.5625 A 1.0001 1.0001 0 0 0 45.96875 13.75 C 45.391861 11.442446 43.757079 9.5131181 41.75 8.15625 C 39.877472 6.8903439 37.65897 6.130229 35.46875 6.03125 L 32.71875 3.28125 A 1.0001 1.0001 0 0 0 32.46875 3.09375 A 1.0001 1.0001 0 0 0 32.40625 3.09375 A 1.0001 1.0001 0 0 0 32.375 3.0625 A 1.0001 1.0001 0 0 0 32.34375 3.0625 C 32.34375 3.0625 29.421311 2 25 2 C 24.967503 2 24.938585 1.999886 24.90625 2 A 1.001098 1.001098 0 0 0 24.8125 2 z M 24.84375 4 A 1.001098 1.001098 0 0 0 25 4 C 27.423553 4 29.208989 4.3261836 30.34375 4.59375 C 29.53489 5.676056 28.199138 7.2258467 26.6875 7.71875 A 1.0001 1.0001 0 0 0 26.0625 8.3125 L 25 11.15625 L 23.9375 8.3125 A 1.0001 1.0001 0 0 0 23.3125 7.71875 C 21.800862 7.2258467 20.46511 5.676056 19.65625 4.59375 C 20.76544 4.332213 22.498837 4.0141784 24.84375 4 z M 17.875 5.5625 C 18.562606 6.654224 19.848389 8.3470326 22.1875 9.34375 L 24.0625 14.34375 A 1.0001 1.0001 0 0 0 25.9375 14.34375 L 27.8125 9.34375 C 30.151611 8.3470326 31.437394 6.654224 32.125 5.5625 L 33.9375 7.375 C 33.896419 7.7717871 33.767139 8.5668179 32.90625 9.9375 C 31.806712 11.688153 29.547713 13.947364 25 15.875 C 20.449183 13.961709 18.191381 11.721865 17.09375 9.96875 C 16.224037 8.5796612 16.099988 7.7645037 16.0625 7.375 L 17.875 5.5625 z M 14.15625 8.03125 C 14.320819 8.7764913 14.660287 9.8398139 15.40625 11.03125 C 16.121526 12.173675 17.212397 13.441954 18.8125 14.6875 C 18.051412 15.96212 15.461112 19.537581 9.875 19.90625 C 9.5993243 16.923658 8.2674401 14.684213 6.3125 13.59375 C 6.8718182 12.165926 7.8850188 10.829912 9.34375 9.84375 C 10.787162 8.8679446 12.516669 8.2016134 14.15625 8.03125 z M 35.84375 8.03125 C 37.483331 8.2016134 39.212838 8.8679446 40.65625 9.84375 C 42.114981 10.829912 43.128182 12.165926 43.6875 13.59375 C 41.73256 14.684213 40.400676 16.923658 40.125 19.90625 C 34.519485 19.536301 31.906975 15.950273 31.15625 14.6875 C 32.773938 13.42721 33.873315 12.147056 34.59375 11 C 35.340344 9.8112943 35.679363 8.7688355 35.84375 8.03125 z M 5.875 15.59375 C 7.1073409 16.526945 8 18.299901 8 21 A 1.0001 1.0001 0 0 0 8.75 21.96875 C 8.6136427 22.58995 8.5020388 23.197512 8.40625 23.78125 C 7.4488775 22.876027 6.0256831 21.847239 4.09375 21.25 C 4.2796183 19.029667 5.2863797 16.758858 5.875 15.59375 z M 44.125 15.59375 C 44.71362 16.758858 45.720382 19.029667 45.90625 21.25 C 43.974317 21.847239 42.551122 22.876027 41.59375 23.78125 C 41.497961 23.197512 41.386357 22.58995 41.25 21.96875 A 1.0001 1.0001 0 0 0 42 21 C 42 18.299901 42.892659 16.526945 44.125 15.59375 z M 20.4375 15.8125 C 21.615298 16.554076 22.985628 17.277521 24.625 17.9375 A 1.0001 1.0001 0 0 0 25.375 17.9375 C 27.006465 17.27485 28.356219 16.556367 29.53125 15.8125 C 30.54689 17.421817 33.508468 21.165194 39.15625 21.875 C 40.467887 27.429681 40.013212 31.289885 39.21875 33.75 C 38.600263 35.665193 37.842856 36.699084 37.5 37.09375 A 1.0063276 1.0063276 0 0 0 37.3125 37.28125 A 1.0063276 1.0063276 0 0 0 37.15625 37.4375 C 36.976739 37.604036 36.234945 38.265054 34.46875 39.09375 C 32.465141 40.03384 29.356316 41 25 41 C 23.175912 41 21.586522 40.828477 20.1875 40.5625 A 1.002073 1.002073 0 0 0 19.8125 42.53125 C 21.327478 42.819273 23.048088 43 25 43 C 29.651684 43 33.063109 41.96166 35.3125 40.90625 C 36.338409 40.424895 37.090963 39.929829 37.65625 39.53125 L 38.75 41.71875 C 35.622324 44.642874 30.02558 46 25 46 C 19.97442 46 14.377676 44.642874 11.25 41.71875 L 12.34375 39.53125 C 13.069549 40.038098 14.15404 40.71615 15.625 41.3125 A 1.0001 1.0001 0 1 0 16.375 39.46875 C 14.435083 38.682278 13.337135 37.860673 12.90625 37.5 A 1.0001 1.0001 0 0 0 12.6875 37.28125 C 12.6875 37.28125 12.613035 37.215276 12.53125 37.125 A 1.0001 1.0001 0 0 0 12.5 37.09375 C 12.157144 36.699084 11.399737 35.665193 10.78125 33.75 C 9.9867878 31.289885 9.5321129 27.429681 10.84375 21.875 C 16.473857 21.167416 19.412841 17.430519 20.4375 15.8125 z" overflow="visible" font-family="Bitstream Vera Sans"/>
</svg>
