<?xml version="1.0"?>
<svg xmlns="http://www.w3.org/2000/svg" viewBox="0 0 50 50">
    <path style="text-indent:0;fill:#3c503c; text-align:start;line-height:normal;text-transform:none;block-progression:tb;-inkscape-font-specification:Bitstream Vera Sans" d="M 25.5 2 C 23.622117 2 22.068958 3.5128183 22 5.375 C 21.538065 5.1487997 21.045413 5 20.5 5 C 18.578812 5 17 6.5788117 17 8.5 L 17 12.5 A 1.0001 1.0001 0 0 0 17 12.59375 L 17 18.5 A 1.0001 1.0001 0 0 0 17 18.59375 L 17 22.40625 L 16.40625 21.125 C 14.894368 17.835746 10.985102 16.380682 7.6875 17.875 A 1.0001 1.0001 0 0 0 7.1875 19.1875 C 7.1875 19.1875 8.6060796 22.267768 10.09375 25.53125 C 10.10308 25.552929 10.115223 25.572167 10.125 25.59375 A 1.0001 1.0001 0 0 0 10.21875 25.78125 C 11.292227 28.137936 12.438831 30.693822 12.84375 31.65625 C 13.492854 33.199067 14.749241 33.992477 15.625 34.78125 C 16.500759 35.570023 17.0625 36.211198 17.0625 37.625 C 17.0625 37.842954 16.820831 39.00053 16.5625 39.9375 C 16.304169 40.87447 16.0625 41.6875 16.0625 41.6875 A 1.0001 1.0001 0 0 0 17 43 C 22.4204 43 26.21875 47.625 26.21875 47.625 A 1.0001 1.0001 0 0 0 27.78125 47.625 C 27.78125 47.625 31.557741 43 37 43 A 1.0001 1.0001 0 0 0 37.9375 41.625 C 37.9375 41.625 37 39.23112 37 37 C 37 36.01788 37.432674 34.903901 37.9375 33.59375 C 38.442326 32.283599 39 30.774107 39 29 L 39 23.15625 A 1.0001 1.0001 0 0 0 39 23 L 39 21 L 39 20.90625 L 39 19.65625 A 1.0001 1.0001 0 0 0 39 19.5 L 39 14.65625 A 1.0001 1.0001 0 0 0 39 14.5 L 39 10.5 C 39 8.5788117 37.421188 7 35.5 7 C 34.954587 7 34.461935 7.1487997 34 7.375 C 33.931042 5.5128183 32.377883 4 30.5 4 C 29.879573 4 29.319872 4.1810844 28.8125 4.46875 C 28.360963 3.0569986 27.054104 2 25.5 2 z M 25.5 4 C 26.340812 4 27 4.6591883 27 5.5 L 27 7.375 C 26.538065 7.1487997 26.045413 7 25.5 7 C 24.954587 7 24.461935 7.1487997 24 7.375 L 24 5.5 C 24 4.6591883 24.659188 4 25.5 4 z M 30.5 6 C 31.340812 6 32 6.6591883 32 7.5 L 32 9.375 C 31.538065 9.1487997 31.045413 9 30.5 9 C 29.954587 9 29.461935 9.1487997 29 9.375 L 29 7.5 C 29 6.6591883 29.659188 6 30.5 6 z M 20.5 7 C 21.340812 7 22 7.6591883 22 8.5 L 22 9.375 C 21.538065 9.1487997 21.045413 9 20.5 9 C 19.954587 9 19.461935 9.1487997 19 9.375 L 19 8.5 C 19 7.6591883 19.659188 7 20.5 7 z M 25.5 9 C 26.340812 9 27 9.6591883 27 10.5 A 1.0001 1.0001 0 0 0 27 10.59375 L 27 12.5 A 1.0001 1.0001 0 0 0 27 12.59375 L 27 13.375 C 26.538065 13.1488 26.045413 13 25.5 13 C 24.954587 13 24.461935 13.1488 24 13.375 L 24 12.65625 A 1.0001 1.0001 0 0 0 24 12.5 L 24 10.65625 A 1.0001 1.0001 0 0 0 24 10.5 C 24 9.6591883 24.659188 9 25.5 9 z M 35.5 9 C 36.340812 9 37 9.6591883 37 10.5 L 37 11.375 C 36.538065 11.1488 36.045413 11 35.5 11 C 34.954587 11 34.461935 11.1488 34 11.375 L 34 10.5 C 34 9.6591883 34.659188 9 35.5 9 z M 20.5 11 C 21.340812 11 22 11.659188 22 12.5 A 1.0001 1.0001 0 0 0 22 12.59375 L 22 15.375 C 21.538065 15.1488 21.045413 15 20.5 15 C 19.954587 15 19.461935 15.1488 19 15.375 L 19 12.65625 A 1.0001 1.0001 0 0 0 19 12.5 C 19 11.659188 19.659188 11 20.5 11 z M 30.5 11 C 31.340812 11 32 11.659188 32 12.5 A 1.0001 1.0001 0 0 0 32 12.59375 L 32 14.5 A 1.0001 1.0001 0 0 0 32 14.59375 L 32 15.375 C 31.541592 15.146746 31.042247 15 30.5 15 C 29.954587 15 29.461935 15.1488 29 15.375 L 29 12.65625 A 1.0001 1.0001 0 0 0 29 12.5 C 29 11.659188 29.659188 11 30.5 11 z M 35.5 13 C 36.340812 13 37 13.659188 37 14.5 A 1.0001 1.0001 0 0 0 37 14.59375 L 37 16.375 C 36.538065 16.1488 36.045413 16 35.5 16 C 34.951005 16 34.456595 16.142487 34 16.375 L 34 14.65625 A 1.0001 1.0001 0 0 0 34 14.5 C 34 13.659188 34.659188 13 35.5 13 z M 25.5 15 C 26.340812 15 27 15.659188 27 16.5 A 1.0001 1.0001 0 0 0 27 16.59375 L 27 18.5 A 1.0001 1.0001 0 0 0 27 18.59375 L 27 20 A 1.0001 1.0001 0 0 0 27.03125 20.1875 A 1.0001 1.0001 0 0 0 27.125 20.46875 A 1.0001 1.0001 0 0 0 27.28125 20.71875 A 1.0001 1.0001 0 0 0 27.4375 20.84375 A 1.0001 1.0001 0 0 0 27.53125 20.90625 A 1.0001 1.0001 0 0 0 27.8125 21 A 1.0001 1.0001 0 0 0 28.21875 21 A 1.0001 1.0001 0 0 0 28.5 20.875 A 1.0001 1.0001 0 0 0 28.5625 20.84375 A 1.0001 1.0001 0 0 0 28.71875 20.6875 A 1.0001 1.0001 0 0 0 29 20 L 29 18.65625 A 1.0001 1.0001 0 0 0 29 18.5 C 29 17.659188 29.659188 17 30.5 17 C 31.340812 17 32 17.659188 32 18.5 A 1.0001 1.0001 0 0 0 32 18.59375 L 32 19.5 A 1.0001 1.0001 0 0 0 32 19.59375 L 32 20 A 1.0001 1.0001 0 0 0 32.03125 20.1875 A 1.0001 1.0001 0 0 0 32.125 20.46875 A 1.0001 1.0001 0 0 0 32.28125 20.71875 A 1.0001 1.0001 0 0 0 32.4375 20.84375 A 1.0001 1.0001 0 0 0 32.53125 20.90625 A 1.0001 1.0001 0 0 0 32.8125 21 A 1.0001 1.0001 0 0 0 33.21875 21 A 1.0001 1.0001 0 0 0 33.5 20.875 A 1.0001 1.0001 0 0 0 33.5625 20.84375 A 1.0001 1.0001 0 0 0 33.71875 20.6875 A 1.0001 1.0001 0 0 0 33.90625 20.46875 A 1.0001 1.0001 0 0 0 34 20.15625 A 1.0001 1.0001 0 0 0 34 20 L 34 19.65625 A 1.0001 1.0001 0 0 0 34 19.5 C 34 18.659188 34.659188 18 35.5 18 C 36.340812 18 37 18.659188 37 19.5 A 1.0001 1.0001 0 0 0 37 19.59375 L 37 20.84375 L 37 23 A 1.0001 1.0001 0 0 0 37 23.09375 L 37 29 C 37 30.346893 36.557674 31.589901 36.0625 32.875 C 35.567326 34.160099 35 35.48412 35 37 C 35 38.822429 35.370163 40.266324 35.6875 41.25 C 30.773154 41.833591 27.866682 44.671579 27 45.65625 C 26.126802 44.667707 23.188004 41.811013 18.25 41.25 C 18.3443 40.936896 18.38462 40.887235 18.5 40.46875 C 18.771169 39.48522 19.0625 38.493046 19.0625 37.625 C 19.0625 35.579802 17.985741 34.228477 16.96875 33.3125 C 15.951759 32.396523 15.057396 31.754183 14.6875 30.875 C 14.537193 30.517745 14.099164 29.574314 13.84375 29 A 1.0001 1.0001 0 0 0 13.84375 28.96875 C 13.835038 28.949168 13.821308 28.926029 13.8125 28.90625 A 1.0001 1.0001 0 0 0 13.71875 28.65625 C 13.302579 27.737286 13.706495 26.665963 14.625 26.25 C 15.429094 25.88585 16.322197 26.156801 16.8125 26.84375 L 16.90625 27 C 16.936942 27.053312 16.974002 27.098843 17 27.15625 L 17.09375 27.40625 A 1.0001 1.0001 0 0 0 17.125 27.4375 A 1.0001 1.0001 0 0 0 19 27 L 19 18.65625 A 1.0001 1.0001 0 0 0 19 18.5 C 19 17.659188 19.659188 17 20.5 17 C 21.340812 17 22 17.659188 22 18.5 A 1.0001 1.0001 0 0 0 22 18.59375 L 22 20 A 1.0001 1.0001 0 0 0 23.21875 21 A 1.0001 1.0001 0 0 0 23.5 20.875 A 1.0001 1.0001 0 0 0 23.5625 20.84375 A 1.0001 1.0001 0 0 0 23.71875 20.6875 A 1.0001 1.0001 0 0 0 24 20 L 24 18.65625 A 1.0001 1.0001 0 0 0 24 18.5 L 24 16.65625 A 1.0001 1.0001 0 0 0 24 16.5 C 24 15.659188 24.659188 15 25.5 15 z M 10.28125 19.375 C 11.352329 19.327496 12.378705 19.650877 13.21875 20.28125 C 12.817523 20.313531 12.422897 20.385088 12.03125 20.5625 C 11.420514 20.839158 10.936685 21.270703 10.5625 21.78125 C 10.207999 21.013561 9.6479489 19.789916 9.5 19.46875 C 9.7568255 19.415406 10.024757 19.386376 10.28125 19.375 z M 21 22 C 20.447715 22 20 22.447715 20 23 C 20 23.552285 20.447715 24 21 24 C 21.552285 24 22 23.552285 22 23 C 22 22.447715 21.552285 22 21 22 z M 26 22 C 25.447715 22 25 22.447715 25 23 C 25 23.552285 25.447715 24 26 24 C 26.552285 24 27 23.552285 27 23 C 27 22.447715 26.552285 22 26 22 z M 31 22 C 30.447715 22 30 22.447715 30 23 C 30 23.552285 30.447715 24 31 24 C 31.552285 24 32 23.552285 32 23 C 32 22.447715 31.552285 22 31 22 z M 35 22 C 34.447715 22 34 22.447715 34 23 C 34 23.552285 34.447715 24 35 24 C 35.552285 24 36 23.552285 36 23 C 36 22.447715 35.552285 22 35 22 z M 13.53125 22.25 C 14.114105 22.228638 14.681177 22.485122 15.03125 22.96875 L 15.125 23.125 C 15.155597 23.177729 15.192943 23.224279 15.21875 23.28125 A 1.0001 1.0001 0 0 0 15.25 23.375 L 15.59375 24.125 C 15.481225 24.117327 15.363415 24.091129 15.25 24.09375 C 14.756066 24.10516 14.257009 24.222043 13.78125 24.4375 C 13.18235 24.708724 12.711306 25.130819 12.34375 25.625 C 12.207231 25.326339 12.136799 25.173413 12 24.875 A 1.0001 1.0001 0 0 0 11.9375 24.75 C 11.524425 23.838117 11.9322 22.819164 12.84375 22.40625 C 13.071721 22.302981 13.298108 22.258545 13.53125 22.25 z"/>
</svg>
