<?xml version="1.0"?>
<svg xmlns="http://www.w3.org/2000/svg" viewBox="0 0 50 50">
    <path style="text-indent:0;fill:#3c503c; text-align:start;line-height:normal;text-transform:none;block-progression:tb;-inkscape-font-specification:Bitstream Vera Sans" d="M 25 2.78125 L 24.4375 3.15625 C 23.053109 4.087945 19.962619 5.7336795 16.875 8.09375 C 13.787381 10.45382 10.628824 13.596646 9.09375 17.75 C 6.2947265 25.32532 9.5919154 33.076972 9.9375 33.875 L 7.09375 39.5625 L 6.5625 40.625 L 7.71875 40.96875 L 21.71875 44.96875 L 23 45.3125 L 23 44 L 23 39.0625 C 23.668289 39.02866 24.339304 39 25 39 C 25.656407 39 26.330214 39.024127 27 39.0625 L 27 44 L 27 45.3125 L 28.28125 44.96875 L 42.28125 40.96875 L 43.4375 40.625 L 42.90625 39.5625 L 40.0625 33.875 C 40.408085 33.076972 43.705273 25.32532 40.90625 17.75 C 39.371277 13.596921 36.212809 10.456662 33.125 8.09375 C 30.037191 5.7308379 26.951184 4.0811133 25.5625 3.15625 L 25 2.78125 z M 25 5.21875 C 26.668115 6.2756402 29.203652 7.6193663 31.90625 9.6875 C 34.830941 11.925588 37.692223 14.814579 39.03125 18.4375 C 41.60399 25.400404 38.09375 33.59375 38.09375 33.59375 L 37.90625 34.03125 L 38.09375 34.4375 L 40.5625 39.375 L 29 42.65625 L 29 32.59375 L 33.59375 29.96875 C 35.086899 29.115522 36 27.501306 36 25.78125 C 36 23.143795 33.824637 21 31.1875 21 C 29.468672 21 27.884483 21.911829 27.03125 23.40625 L 25 26.96875 L 22.96875 23.40625 C 22.115522 21.913101 20.500568 21 18.78125 21 C 16.144856 21 14 23.174303 14 25.8125 C 14 27.531818 14.913667 29.114584 16.40625 29.96875 L 21 32.59375 L 21 42.65625 L 9.4375 39.375 L 11.90625 34.4375 L 12.09375 34.03125 L 11.90625 33.59375 C 11.90625 33.59375 8.3960098 25.400404 10.96875 18.4375 C 12.307676 14.814854 15.168869 11.92318 18.09375 9.6875 C 20.796524 7.6215917 23.3285 6.2866952 25 5.21875 z M 15 17 C 14.447715 17 14 17.447715 14 18 C 14 18.552285 14.447715 19 15 19 C 15.552285 19 16 18.552285 16 18 C 16 17.447715 15.552285 17 15 17 z M 19 17 C 18.447715 17 18 17.447715 18 18 C 18 18.552285 18.447715 19 19 19 C 19.552285 19 20 18.552285 20 18 C 20 17.447715 19.552285 17 19 17 z M 23 17 C 22.447715 17 22 17.447715 22 18 C 22 18.552285 22.447715 19 23 19 C 23.552285 19 24 18.552285 24 18 C 24 17.447715 23.552285 17 23 17 z M 27 17 C 26.447715 17 26 17.447715 26 18 C 26 18.552285 26.447715 19 27 19 C 27.552285 19 28 18.552285 28 18 C 28 17.447715 27.552285 17 27 17 z M 31 17 C 30.447715 17 30 17.447715 30 18 C 30 18.552285 30.447715 19 31 19 C 31.552285 19 32 18.552285 32 18 C 32 17.447715 31.552285 17 31 17 z M 35 17 C 34.447715 17 34 17.447715 34 18 C 34 18.552285 34.447715 19 35 19 C 35.552285 19 36 18.552285 36 18 C 36 17.447715 35.552285 17 35 17 z M 18.78125 23 C 19.785932 23 20.719978 23.533399 21.21875 24.40625 L 24.125 29.5 L 25 31 L 25.875 29.5 L 28.78125 24.40625 C 29.280017 23.532671 30.182328 23 31.1875 23 C 32.744363 23 34 24.224705 34 25.78125 C 34 26.787194 33.466601 27.719978 32.59375 28.21875 L 27.5 31.125 L 27 31.40625 L 27 32 L 27 37.0625 C 26.334108 37.026781 25.669976 37 25 37 C 24.335021 37 23.66664 37.032128 23 37.0625 L 23 32 L 23 31.40625 L 22.5 31.125 L 17.40625 28.21875 C 16.532833 27.718916 16 26.817182 16 25.8125 C 16 24.254697 17.225644 23 18.78125 23 z" overflow="visible" font-family="Bitstream Vera Sans"/>
</svg>
