<?xml version="1.0"?>
<svg xmlns="http://www.w3.org/2000/svg" viewBox="0 0 50 50">
    <path style="text-indent:0;fill:#3c503c; text-align:start;line-height:normal;text-transform:none;block-progression:tb;-inkscape-font-specification:Bitstream Vera Sans" d="M 31 2 C 19.159496 2 7.375 11.21875 7.375 11.21875 A 1.0001 1.0001 0 0 0 7 12.0625 C 7 12.0625 7.2323649 15.93984 7.09375 20.46875 C 6.9595662 24.852883 6.4009931 29.881875 5.25 32.28125 C 5.2482945 32.284805 5.2204581 32.277706 5.21875 32.28125 A 1.0001 1.0001 0 0 0 4.9375 33 A 1.0001 1.0001 0 0 0 6.0625 34.09375 L 6.09375 34.09375 L 6.9375 34.40625 C 6.2264832 35.580879 5 38.038873 5 41 C 5 45.105556 7.25 47.65625 7.25 47.65625 A 1.0001 1.0001 0 0 0 8 48 L 27.8125 48 L 28.21875 48 L 36.8125 48 L 37.21875 48 L 48 48 A 1.0001 1.0001 0 0 0 48.9375 46.6875 L 47.59375 42.65625 C 46.784383 40.227366 45.147594 38.22884 43.03125 36.90625 A 1.0001 1.0001 0 0 0 42.96875 36.84375 C 42.943956 36.828533 42.931177 36.796272 42.90625 36.78125 A 1.0001 1.0001 0 0 0 42.46875 36.53125 C 42.460578 36.526833 42.445685 36.535647 42.4375 36.53125 C 41.741781 36.157507 40.99664 35.841026 40.21875 35.625 L 29.40625 32.625 L 30.5625 31.84375 A 1.0001 1.0001 0 0 0 30.65625 31.75 A 1.0004882 1.0004882 0 0 0 30.71875 31.71875 A 1.0001 1.0001 0 0 0 30.71875 31.6875 A 1.0004882 1.0004882 0 0 0 30.78125 31.65625 A 1.0001 1.0001 0 0 0 30.78125 31.625 A 1.0004882 1.0004882 0 0 0 30.84375 31.5625 A 1.0001 1.0001 0 0 0 30.84375 31.53125 A 1.0001 1.0001 0 0 0 30.6875 30.21875 A 1.0001 1.0001 0 0 0 30.625 30.15625 C 30.263323 29.653876 29 27.782608 29 26 C 29 25.548798 29.188556 23.706138 29.46875 21.4375 C 29.748944 19.168862 30.125368 16.36734 30.5 13.65625 C 31.249265 8.2340708 32 3.15625 32 3.15625 A 1.0001 1.0001 0 0 0 31 2 z M 29.8125 4.09375 C 29.665026 5.1015375 29.161792 8.6170815 28.5 13.40625 C 28.124632 16.12266 27.751056 18.901763 27.46875 21.1875 C 27.186444 23.473237 27 25.161202 27 26 C 27 27.98837 27.938961 29.717902 28.59375 30.71875 L 26.59375 32.0625 A 1.0001 1.0001 0 0 0 26.5 32.125 L 26.46875 32.125 A 1.0001 1.0001 0 0 0 26.25 32.28125 L 23.4375 34.15625 A 1.0001 1.0001 0 0 0 23.03125 34.71875 L 22.1875 37.75 C 21.636945 39.676122 19.876829 41 17.875 41 C 15.976009 41 14.290929 39.821454 13.65625 38.03125 L 12.46875 34.6875 A 1.0001 1.0001 0 0 0 11.875 34.09375 L 7.34375 32.4375 C 7.6411503 31.697771 7.8876938 30.881149 8.09375 30 L 12 30 A 1.0001 1.0001 0 0 0 12.90625 29.4375 L 13.90625 27.4375 A 1.0001 1.0001 0 0 0 13.90625 26.5625 L 12.90625 24.5625 A 1.0001 1.0001 0 0 0 12 24 L 8.90625 24 C 8.9901998 22.82703 9.0588809 21.639265 9.09375 20.5 C 9.0992632 20.319869 9.0893576 20.176133 9.09375 20 L 12 20 A 1.0001 1.0001 0 0 0 12.90625 19.4375 L 13.90625 17.4375 A 1.0001 1.0001 0 0 0 13.90625 16.5625 L 12.90625 14.5625 A 1.0001 1.0001 0 0 0 12 14 L 9.0625 14 C 9.0377859 13.434019 9.0072981 12.637862 9 12.5 C 9.5463158 12.095904 12.71291 9.8323238 17.0625 7.75 C 17.039216 7.8346494 17 7.9079526 17 8 C 17 8.5522847 17.447715 9 18 9 C 18.552285 9 19 8.5522847 19 8 C 19 7.6104106 18.762623 7.2900689 18.4375 7.125 C 21.847165 5.6181336 25.82033 4.3218092 29.8125 4.09375 z M 18 11 C 17.447715 11 17 11.447715 17 12 C 17 12.552285 17.447715 13 18 13 C 18.552285 13 19 12.552285 19 12 C 19 11.447715 18.552285 11 18 11 z M 18 15 C 17.447715 15 17 15.447715 17 16 C 17 16.552285 17.447715 17 18 17 C 18.552285 17 19 16.552285 19 16 C 19 15.447715 18.552285 15 18 15 z M 9.09375 16 L 11.375 16 L 11.875 17 L 11.375 18 L 9.125 18 C 9.1280308 17.259443 9.1042879 16.617232 9.09375 16 z M 18 19 C 17.447715 19 17 19.447715 17 20 C 17 20.552285 17.447715 21 18 21 C 18.552285 21 19 20.552285 19 20 C 19 19.447715 18.552285 19 18 19 z M 18 23 C 17.447715 23 17 23.447715 17 24 C 17 24.552285 17.447715 25 18 25 C 18.552285 25 19 24.552285 19 24 C 19 23.447715 18.552285 23 18 23 z M 8.75 26 L 11.375 26 L 11.875 27 L 11.375 28 L 8.46875 28 C 8.5725249 27.346817 8.6764603 26.681099 8.75 26 z M 18 27 C 17.447715 27 17 27.447715 17 28 C 17 28.552285 17.447715 29 18 29 C 18.552285 29 19 28.552285 19 28 C 19 27.447715 18.552285 27 18 27 z M 18 31 C 17.447715 31 17 31.447715 17 32 C 17 32.552285 17.447715 33 18 33 C 18.552285 33 19 32.552285 19 32 C 19 31.447715 18.552285 31 18 31 z M 27.1875 34.09375 L 32.15625 35.46875 C 31.631518 35.884028 31.079994 36.372142 30.5 37.03125 C 28.874348 38.87865 27.289651 41.797331 27.0625 46 L 8.53125 46 C 8.200635 45.587685 7 43.976936 7 41 C 7 38.129916 8.4412457 35.774071 8.875 35.125 L 10.75 35.8125 L 11.75 38.6875 C 12.665321 41.269296 15.135991 43 17.875 43 C 20.761171 43 23.300305 41.088378 24.09375 38.3125 L 24.875 35.65625 L 27.1875 34.09375 z M 18 35 C 16.895431 35 16 35.895431 16 37 C 16 38.104569 16.895431 39 18 39 C 19.104569 39 20 38.104569 20 37 C 20 35.895431 19.104569 35 18 35 z M 34.625 36.15625 L 39.6875 37.5625 C 39.826193 37.601016 39.957898 37.642628 40.09375 37.6875 C 39.68194 38.014697 39.254714 38.403675 38.8125 38.90625 C 37.519279 40.37599 36.250689 42.711248 36.03125 46 L 29.03125 46 C 29.248839 42.307139 30.635915 39.893905 32 38.34375 C 33.113965 37.077834 34.16452 36.411042 34.625 36.15625 z M 42.15625 38.6875 C 43.803758 39.762268 45.080025 41.364459 45.71875 43.28125 L 46.625 46 L 38.0625 46 C 38.269193 43.233983 39.279545 41.423948 40.3125 40.25 C 41.055173 39.405955 41.738328 38.933411 42.15625 38.6875 z"/>
</svg>
