<?xml version="1.0"?>
<svg xmlns="http://www.w3.org/2000/svg" viewBox="0 0 50 50">
    <path style="text-indent:0;fill:#3c503c; text-align:start;line-height:normal;text-transform:none;block-progression:tb;-inkscape-font-specification:Bitstream Vera Sans" d="M 25 4.96875 L 24.75 5.03125 C 24.75 5.03125 21.76977 5.7852552 18.28125 6.53125 C 14.79273 7.2772448 10.717322 8 9 8 L 8 8 L 8 9 L 8 28 C 8 34.413902 12.279332 39.177549 16.40625 42.28125 C 20.533168 45.384951 24.65625 46.9375 24.65625 46.9375 L 25 47.0625 L 25.34375 46.9375 C 25.34375 46.9375 29.465323 45.405466 33.59375 42.3125 C 37.722177 39.219534 42 34.456484 42 28 L 42 9 L 42 8 L 41 8 C 39.279857 8 35.206615 7.2772376 31.71875 6.53125 C 28.230885 5.7852624 25.25 5.03125 25.25 5.03125 L 25 4.96875 z M 25 7.03125 C 25.219263 7.085657 27.922041 7.7435956 31.3125 8.46875 C 34.432698 9.1361007 37.705959 9.7591256 40 9.90625 L 40 28 C 40 33.569516 36.277823 37.818216 32.40625 40.71875 C 28.811218 43.412103 25.496104 44.713506 25 44.90625 C 24.503676 44.710627 21.190183 43.392242 17.59375 40.6875 C 13.720668 37.774701 10 33.520098 10 28 L 10 9.90625 C 12.292478 9.7591257 15.566775 9.1360944 18.6875 8.46875 C 22.078532 7.7436025 24.78065 7.0856564 25 7.03125 z M 25 9.09375 L 24.75 9.15625 C 22.313765 9.7473952 16.966894 10.995212 12.84375 11.625 L 12 11.75 L 12 12.59375 L 12 28 C 12 32.008807 14.345065 35.249933 17.03125 37.65625 C 19.717435 40.062567 22.791838 41.693057 24.5625 42.53125 L 25 42.75 L 25.4375 42.53125 C 27.213995 41.689617 30.283108 40.062548 32.96875 37.65625 C 35.654392 35.249952 38 32.005321 38 28 L 38 12.59375 L 38 11.75 L 37.15625 11.625 C 33.034425 10.996247 27.686424 9.7474411 25.25 9.15625 L 25 9.09375 z M 25 11.15625 C 27.344889 11.723441 32.006689 12.744081 36 13.40625 L 36 13.4375 L 14 28.09375 C 13.999632 28.062265 14 28.031572 14 28 L 14 13.40625 C 17.993721 12.743445 22.654985 11.723443 25 11.15625 z M 36 15.875 L 36 20.125 L 15.9375 33.5 C 15.228459 32.511408 14.675366 31.477258 14.34375 30.34375 C 14.34093 30.334109 14.346538 30.322151 14.34375 30.3125 L 36 15.875 z M 19 16.5 L 17 19 L 19 21.5 L 21 19 L 19 16.5 z M 36 22.53125 L 36 28 C 36 31.215679 34.078108 33.958298 31.625 36.15625 C 29.339277 38.204227 26.71071 39.631788 25 40.46875 C 23.294396 39.634874 20.661149 38.23546 18.375 36.1875 C 17.973485 35.827818 17.585675 35.452299 17.21875 35.0625 L 36 22.53125 z M 31 28.5 L 29 31 L 31 33.5 L 33 31 L 31 28.5 z" overflow="visible" font-family="Bitstream Vera Sans"/>
</svg>
