<?xml version="1.0"?>
<svg xmlns="http://www.w3.org/2000/svg" version="1" viewBox="0 0 50 50" enable-background="new 0 0 50 50">
    <path style="fill:#3c503c; text-indent:0;text-align:start;line-height:normal;text-transform:none;block-progression:tb;-inkscape-font-specification:Bitstream Vera Sans" d="M 48.90625 0 A 1.0001 1.0001 0 0 0 48.6875 0.0625 L 37.59375 3.75 A 1.0001 1.0001 0 0 0 37.15625 4.03125 L 13.75 29.65625 L 8.78125 26.1875 A 1.0001 1.0001 0 0 0 8.125 26 A 1.0001 1.0001 0 0 0 7.5 26.28125 L 5 28.6875 A 1.0001 1.0001 0 0 0 5 30.09375 L 9.4375 34.53125 L 4.3125 41.03125 C 1.9271461 41.132962 0 43.090945 0 45.5 C 0 47.973437 2.0265634 50 4.5 50 C 6.9090545 50 8.867038 48.072854 8.96875 45.6875 L 15.46875 40.5625 L 19.90625 45 A 1.0001 1.0001 0 0 0 21.3125 45 L 23.71875 42.5 A 1.0001 1.0001 0 0 0 23.8125 41.21875 L 20.34375 36.25 L 45.96875 12.84375 A 1.0001 1.0001 0 0 0 46.25 12.40625 L 49.9375 1.3125 A 1.0001 1.0001 0 0 0 48.90625 0 z M 47.4375 2.5625 L 44.40625 11.5625 L 19.15625 34.59375 L 17.71875 32.53125 A 1.0001 1.0001 0 0 0 17.46875 32.28125 L 15.40625 30.84375 L 38.4375 5.59375 L 47.4375 2.5625 z M 8.3125 28.28125 L 13.15625 31.6875 A 1.0059637 1.0059637 0 0 0 13.5625 31.96875 L 16.1875 33.8125 L 18.0625 36.5 A 1.0059637 1.0059637 0 0 0 18.3125 36.84375 L 21.71875 41.6875 L 20.59375 42.875 L 7.125 29.40625 L 8.3125 28.28125 z M 10.875 35.96875 L 14.03125 39.125 L 8.5 43.5 C 8.064027 42.63772 7.3622798 41.935973 6.5 41.5 L 10.875 35.96875 z M 4.5 43 C 5.8925566 43 7 44.107443 7 45.5 C 7 46.892557 5.8925566 48 4.5 48 C 3.1074434 48 2 46.892557 2 45.5 C 2 44.107443 3.1074434 43 4.5 43 z" overflow="visible" enable-background="accumulate" font-family="Bitstream Vera Sans"/>
</svg>
