<?xml version="1.0" encoding="iso-8859-1"?>
<!-- Generator: Adobe Illustrator 19.0.0, SVG Export Plug-In . SVG Version: 6.00 Build 0)  -->
<svg version="1.1" id="Capa_1" xmlns="http://www.w3.org/2000/svg" xmlns:xlink="http://www.w3.org/1999/xlink" x="0px" y="0px"
	 viewBox="0 0 480 480" style="enable-background:new 0 0 480 480;" xml:space="preserve">
<path style="fill:#7C84E8;" d="M56,288h136v136c0,26.51,21.49,48,48,48s48-21.49,48-48l0,0V288h136c26.51,0,48-21.49,48-48
	s-21.49-48-48-48l0,0H288V56c0-26.51-21.49-48-48-48s-48,21.49-48,48v136H56c-26.51,0-48,21.49-48,48S29.49,288,56,288z"/>
<path style="fill:#231F20;" d="M240,480c-30.913-0.035-55.965-25.087-56-56V296H56c-30.928,0-56-25.072-56-56s25.072-56,56-56h128
	V56c0-30.928,25.072-56,56-56s56,25.072,56,56v128h128c30.928,0,56,25.072,56,56s-25.072,56-56,56H296v128
	C295.965,454.913,270.913,479.965,240,480z M56,200c-22.091,0-40,17.909-40,40s17.909,40,40,40h136c4.418,0,8,3.582,8,8v136
	c0,22.091,17.909,40,40,40s40-17.909,40-40V288c0-4.418,3.582-8,8-8h136c22.091,0,40-17.909,40-40s-17.909-40-40-40H288
	c-4.418,0-8-3.582-8-8V56c0-22.091-17.909-40-40-40s-40,17.909-40,40v136c0,4.418-3.582,8-8,8H56z"/>
<g>
</g>
<g>
</g>
<g>
</g>
<g>
</g>
<g>
</g>
<g>
</g>
<g>
</g>
<g>
</g>
<g>
</g>
<g>
</g>
<g>
</g>
<g>
</g>
<g>
</g>
<g>
</g>
<g>
</g>
</svg>
