<?xml version="1.0" encoding="iso-8859-1"?>
<!-- Generator: Adobe Illustrator 21.0.0, SVG Export Plug-In . SVG Version: 6.00 Build 0)  -->
<svg xmlns="http://www.w3.org/2000/svg" xmlns:xlink="http://www.w3.org/1999/xlink" version="1.1" id="Capa_1" x="0px" y="0px" viewBox="0 0 512 512" style="enable-background:new 0 0 512 512;" xml:space="preserve" width="512" height="512">
<g>
	<rect x="75.728" y="119.985" style="fill:#FF9923;" width="120.181" height="271.989"/>
	<rect x="179.647" y="119.985" style="fill:#CC7A1D;" width="16.262" height="271.989"/>
	<rect x="195.909" y="119.985" style="fill:#FEDB41;" width="120.181" height="271.989"/>
	<rect x="298.836" y="119.985" style="fill:#CFB235;" width="17.254" height="271.989"/>
	<rect x="316.091" y="119.985" style="fill:#FF9923;" width="120.181" height="271.989"/>
	<rect x="418.092" y="119.985" style="fill:#CC7A1D;" width="18.181" height="271.989"/>
	<path style="fill:#FEDB41;" d="M255.585,0.431l-59.676,119.555H75.728l179.5-119.87C255.438-0.025,255.698,0.205,255.585,0.431z"/>
	<polygon style="fill:#CFB235;" points="87.315,112.247 75.728,119.985 195.909,119.985 199.772,112.247  "/>
	<path style="fill:#CFB235;" d="M231.239,16.136l-51.837,103.85h16.507L255.585,0.431c0.113-0.226-0.147-0.455-0.357-0.315   L231.239,16.136z"/>
	<path style="fill:#FF9923;" d="M316.091,119.985H195.909L255.711,0.179c0.119-0.238,0.458-0.238,0.577,0L316.091,119.985z"/>
	<polygon style="fill:#CC7A1D;" points="199.772,112.247 195.909,119.985 316.091,119.985 312.228,112.247  "/>
	<path style="fill:#CC7A1D;" d="M255.711,0.178l-8.339,16.705l51.464,103.101h17.254L256.289,0.178   C256.17-0.059,255.83-0.059,255.711,0.178z"/>
	<path style="fill:#FEDB41;" d="M436.272,119.985H316.091L256.415,0.431c-0.113-0.226,0.147-0.455,0.357-0.315L436.272,119.985z"/>
	<polygon style="fill:#CFB235;" points="424.685,112.247 312.228,112.247 316.091,119.985 436.272,119.985  "/>
	<path style="fill:#CFB235;" d="M256.415,0.431l8.676,17.381l153.001,102.173h18.181L256.772,0.116   C256.562-0.025,256.302,0.205,256.415,0.431z"/>
	<path style="fill:#FF9923;" d="M195.909,391.974l59.767,119.737c0.088,0.176-0.115,0.355-0.279,0.246L75.728,391.974H195.909z"/>
	<polygon style="fill:#CC7A1D;" points="199.514,399.196 195.909,391.974 75.728,391.974 86.542,399.196  "/>
	<path style="fill:#CC7A1D;" d="M255.677,511.711l-59.767-119.737h-15.991l52.095,104.366l23.385,15.616   C255.562,512.067,255.765,511.888,255.677,511.711z"/>
	<path style="fill:#FEDB41;" d="M316.091,391.974l-59.831,119.865c-0.107,0.214-0.412,0.214-0.519,0l-59.831-119.865H316.091z"/>
	<polygon style="fill:#CFB235;" points="312.486,399.196 316.091,391.974 195.909,391.974 199.514,399.196  "/>
	<path style="fill:#CFB235;" d="M298.836,391.974l-51.464,103.102l8.368,16.764c0.107,0.214,0.412,0.214,0.519,0l59.831-119.865   H298.836z"/>
	<path style="fill:#FF9923;" d="M436.272,391.974l-179.67,119.983c-0.164,0.109-0.367-0.069-0.279-0.246l59.767-119.737H436.272z"/>
	<path style="fill:#CC7A1D;" d="M316.091,391.974l-3.605,7.222h109.686l-164.53,109.872l-0.917,1.838   c-0.087,0.175-0.046,0.387,0.101,0.516c0.147,0.129,0.362,0.144,0.525,0.035l178.921-119.483H316.091z"/>
	<path style="fill:#CC7A1D;" d="M418.092,391.974L265.09,494.148l-8.767,17.564c-0.088,0.176,0.115,0.355,0.279,0.246   l179.67-119.983H418.092z"/>
</g>















</svg>
