<?xml version="1.0" encoding="iso-8859-1"?>
<!-- Generator: Adobe Illustrator 19.0.0, SVG Export Plug-In . SVG Version: 6.00 Build 0)  -->
<svg version="1.1" id="Capa_1" xmlns="http://www.w3.org/2000/svg" xmlns:xlink="http://www.w3.org/1999/xlink" x="0px" y="0px"
	 viewBox="0 0 512 512" style="enable-background:new 0 0 512 512;" xml:space="preserve">
<g>
	<g>
		<path style="fill:#F29C1F;" d="M26.483,459.034h79.448v44.138c0,4.875-3.952,8.828-8.828,8.828H35.31
			c-4.875,0-8.828-3.952-8.828-8.828V459.034z"/>
		<path style="fill:#F29C1F;" d="M406.069,459.034h79.448v44.138c0,4.875-3.952,8.828-8.828,8.828h-61.793
			c-4.875,0-8.828-3.952-8.828-8.828V459.034z"/>
	</g>
	<g>
		<path style="fill:#CB8252;" d="M512,35.31c0.003-9.366-3.717-18.349-10.339-24.971S486.055-0.003,476.69,0H35.31
			c-9.366-0.003-18.349,3.717-24.971,10.339S-0.003,25.945,0,35.31v44.138l44.138,79.448H26.483
			c-7.027-0.009-13.768,2.778-18.737,7.746c-4.969,4.969-7.756,11.71-7.746,18.736v264.828c-0.009,7.027,2.778,13.768,7.746,18.736
			c4.969,4.969,11.71,7.756,18.737,7.746h459.034c7.027,0.009,13.768-2.778,18.736-7.746c4.969-4.969,7.756-11.71,7.746-18.736
			V185.379c0.009-7.027-2.778-13.768-7.746-18.736c-4.969-4.969-11.71-7.756-18.736-7.746h-17.655L512,79.448V35.31z"/>
		<path style="fill:#CB8252;" d="M512,35.31v44.138H0L0,35.31c-0.003-9.366,3.717-18.349,10.339-24.971S25.945-0.003,35.31,0H476.69
			c9.366-0.003,18.349,3.717,24.971,10.339C508.283,16.962,512.003,25.945,512,35.31z"/>
	</g>
	<polygon style="fill:#805333;" points="512,79.448 467.862,158.897 44.138,158.897 0,79.448 	"/>
	<g>
		<rect x="52.966" y="158.897" style="fill:#F0C419;" width="52.966" height="317.793"/>
		<rect x="406.069" y="158.897" style="fill:#F0C419;" width="52.966" height="317.793"/>
		<path style="fill:#F0C419;" d="M229.517,35.31h52.966c9.751,0,17.655,7.904,17.655,17.655v26.483h-88.276V52.966
			C211.862,43.215,219.767,35.31,229.517,35.31z"/>
		<rect x="211.862" y="158.897" style="fill:#F0C419;" width="88.276" height="112.64"/>
	</g>
	<circle style="fill:#F29C1F;" cx="256" cy="326.621" r="70.621"/>
	<path style="fill:#E57E25;" d="M291.31,326.621c0.014,16.101-10.887,30.163-26.483,34.163c-5.786,1.53-11.87,1.53-17.655,0
		c-15.588-4.012-26.483-18.067-26.483-34.163s10.895-30.15,26.483-34.163c5.786-1.53,11.87-1.53,17.655,0
		C280.424,296.458,291.325,310.52,291.31,326.621z"/>
	<g>
		<path style="fill:#F0C419;" d="M264.828,292.458v68.326c-5.786,1.53-11.87,1.53-17.655,0v-68.326
			C252.958,290.928,259.042,290.928,264.828,292.458z"/>
		<rect x="52.966" y="0" style="fill:#F0C419;" width="70.621" height="79.448"/>
		<rect x="388.414" y="0" style="fill:#F0C419;" width="70.621" height="79.448"/>
	</g>
</g>
<g>
</g>
<g>
</g>
<g>
</g>
<g>
</g>
<g>
</g>
<g>
</g>
<g>
</g>
<g>
</g>
<g>
</g>
<g>
</g>
<g>
</g>
<g>
</g>
<g>
</g>
<g>
</g>
<g>
</g>
</svg>
