<svg height="512pt" viewBox="0 -59 512 512" width="512pt" xmlns="http://www.w3.org/2000/svg"><path d="m250.175781 386.398438-51.898437-107.125c63.441406-25.660157 115.457031 0 115.457031 0h112.214844c12.578125 10.71875 51.898437 48.882812 51.898437 107.125zm0 0" fill="#fd6f71"/><path d="m403.167969 291.726562c0 18.40625-14.921875 33.328126-33.328125 33.328126s-33.328125-14.921876-33.328125-33.328126 14.921875-33.328124 33.328125-33.328124 33.328125 14.921874 33.328125 33.328124zm0 0" fill="#e3b098"/><path d="m250.175781 386.398438c0-58.242188-39.316406-96.40625-51.898437-107.125h-112.214844c-12.582031 10.71875-51.898438 48.882812-51.898438 107.125zm0 0" fill="#fadc60"/><path d="m175.496094 291.726562c0 18.40625-14.921875 33.328126-33.324219 33.328126-18.40625 0-33.328125-14.921876-33.328125-33.328126s14.921875-33.328124 33.328125-33.328124c18.402344 0 33.324219 14.921874 33.324219 33.328124zm0 0" fill="#d9a891"/><path d="m79.542969 268.339844s23.835937 27.597656 0 44.453125c-11.394531 8.0625-21.671875 4.773437-29.292969-.855469-12.207031-9.015625-16.960938-25.300781-10.382812-38.976562 3.261718-6.777344 9.316406-13.082032 20.355468-15.90625zm0 0" fill="#fbc4ac"/><path d="m142.171875 27.066406c-74.382813 0-134.671875 51.480469-134.671875 127.332032 0 75.847656 60.289062 137.328124 134.671875 137.328124 74.367187 0 134.65625-61.480468 134.65625-137.328124 0-75.851563-60.289063-127.332032-134.65625-127.332032zm0 0" fill="#e3b098"/><path d="m270.386719 112.316406c-9.246094-112.585937-54.644531-95.25-128.214844-95.25-55.617187 0-82.328125-5.566406-93.707031-9.117187-4.550782-1.421875-9.449219.628906-11.613282 4.875-9.085937 17.824219-29.351562 66.054687-29.351562 141.574219 0 0 32.210938-58 134.671875-58 47.664063 0 43.675781 15.917968 128.214844 15.917968zm0 0" fill="#3a484a"/><path d="m432.46875 268.339844s-23.835938 27.597656 0 44.453125c11.394531 8.0625 21.667969 4.773437 29.289062-.855469 12.210938-9.015625 16.964844-25.300781 10.382813-38.976562-3.257813-6.777344-9.316406-13.082032-20.351563-15.90625zm0 0" fill="#e3b098"/><path d="m504.5 154.398438c0 75.847656-60.289062 137.328124-134.660156 137.328124-74.378906 0-134.667969-61.480468-134.667969-137.328124l5.046875-19.703126 30.167969-48.964843 67.675781-17.898438 96.058594-3.636719 47.597656 27.136719 13 29.863281zm0 0" fill="#fbc4ac"/><path d="m504.5 154.398438c-44.660156-110-134.660156-43.332032-134.660156-43.332032s-90-66.667968-134.667969 43.332032c0-75.851563 60.289063-137.332032 134.667969-137.332032 74.371094 0 134.660156 61.480469 134.660156 137.332032zm0 0" fill="#c86d5c"/><g fill="#f98084"><path d="m451.125 202.898438h-19.007812c-4.144532 0-7.5-3.359376-7.5-7.5 0-4.144532 3.355468-7.5 7.5-7.5h19.007812c4.144531 0 7.5 3.355468 7.5 7.5 0 4.140624-3.355469 7.5-7.5 7.5zm0 0"/><path d="m307.554688 202.898438h-19.007813c-4.144531 0-7.5-3.359376-7.5-7.5 0-4.144532 3.355469-7.5 7.5-7.5h19.007813c4.144531 0 7.5 3.355468 7.5 7.5 0 4.140624-3.355469 7.5-7.5 7.5zm0 0"/><path d="m223.457031 202.898438h-19.011719c-4.140624 0-7.5-3.359376-7.5-7.5 0-4.144532 3.359376-7.5 7.5-7.5h19.011719c4.140625 0 7.5 3.355468 7.5 7.5 0 4.140624-3.359375 7.5-7.5 7.5zm0 0"/><path d="m79.886719 202.898438h-19.011719c-4.140625 0-7.5-3.359376-7.5-7.5 0-4.144532 3.359375-7.5 7.5-7.5h19.011719c4.140625 0 7.5 3.355468 7.5 7.5 0 4.140624-3.359375 7.5-7.5 7.5zm0 0"/></g><path d="m441.621094 182.382812c4.140625 0 7.5-3.355468 7.5-7.5v-13.957031c0-4.140625-3.359375-7.5-7.5-7.5-4.144532 0-7.5 3.359375-7.5 7.5v13.957031c0 4.144532 3.355468 7.5 7.5 7.5zm0 0"/><path d="m298.050781 182.382812c4.140625 0 7.5-3.355468 7.5-7.5v-13.957031c0-4.140625-3.359375-7.5-7.5-7.5-4.144531 0-7.5 3.359375-7.5 7.5v13.957031c0 4.144532 3.355469 7.5 7.5 7.5zm0 0"/><path d="m387.609375 183.285156c-3.117187-2.726562-7.855469-2.410156-10.582031.710938-1.730469 1.980468-4.351563 3.117187-7.191406 3.117187-2.839844 0-5.460938-1.136719-7.191407-3.117187-2.726562-3.121094-7.464843-3.4375-10.585937-.710938-3.117188 2.722656-3.4375 7.460938-.710938 10.582032 4.582032 5.238281 11.320313 8.246093 18.488282 8.246093 7.167968 0 13.90625-3.007812 18.484374-8.246093 2.726563-3.121094 2.410157-7.859376-.710937-10.582032zm0 0"/><path d="m213.949219 182.382812c4.144531 0 7.5-3.355468 7.5-7.5v-13.957031c0-4.140625-3.355469-7.5-7.5-7.5-4.140625 0-7.5 3.359375-7.5 7.5v13.957031c0 4.144532 3.359375 7.5 7.5 7.5zm0 0"/><path d="m70.378906 182.382812c4.144532 0 7.5-3.355468 7.5-7.5v-13.957031c0-4.140625-3.355468-7.5-7.5-7.5-4.140625 0-7.5 3.359375-7.5 7.5v13.957031c0 4.144532 3.359375 7.5 7.5 7.5zm0 0"/><path d="m142.164062 202.113281c7.167969 0 13.90625-3.007812 18.488282-8.246093 2.726562-3.121094 2.40625-7.855469-.710938-10.582032-3.121094-2.726562-7.859375-2.410156-10.585937.710938-1.730469 1.980468-4.351563 3.117187-7.191407 3.117187-2.839843 0-5.460937-1.136719-7.191406-3.117187-2.726562-3.121094-7.464844-3.4375-10.582031-.710938-3.121094 2.722656-3.4375 7.460938-.710937 10.582032 4.578124 5.238281 11.316406 8.246093 18.484374 8.246093zm0 0"/><path d="m42.546875 257.613281c-3.953125 3.257813-7.121094 7.289063-9.4375 12.097657-7.894531 16.414062-2.796875 36.390624 12.09375 47.804687-12.292969 21.785156-18.542969 44.917969-18.542969 68.882813 0 4.144531 3.359375 7.5 7.5 7.5h443.6875c4.140625 0 7.5-3.355469 7.5-7.5 0-23.964844-6.246094-47.101563-18.539062-68.882813 14.886718-11.414063 19.988281-31.390625 12.089844-47.804687-2.3125-4.808594-5.488282-8.839844-9.4375-12.097657 26.238281-26.292969 42.539062-62.847656 42.539062-103.214843 0-35.96875-13.03125-70.457032-36.699219-97.117188-2.75-3.097656-7.488281-3.378906-10.585937-.628906-3.101563 2.75-3.382813 7.492187-.632813 10.589844 12.476563 14.050781 21.660157 30.539062 27.109375 48.300781-11.746094-14.90625-25.710937-24.683594-41.769531-29.191407-5.625-1.582031-11.457031-2.472656-17.292969-2.722656-27.867187-1.214844-52.480468 12.195313-62.289062 18.402344-10.363282-6.558594-37.242188-21.160156-67.035156-18.0625-5.226563.542969-10.394532 1.636719-15.394532 3.246094-14.859375 4.828125-27.863281 14.296875-38.90625 28.300781.03125-.101563 2.855469-8.296875 3.457032-9.828125 18.910156-47.523438 64.621093-81.117188 117.878906-81.117188 26.445312 0 51.800781 8.210938 73.320312 23.746094 3.359375 2.425782 8.050782 1.667969 10.472656-1.691406 2.425782-3.355469 1.667969-8.042969-1.691406-10.46875-24.09375-17.394531-52.480468-26.585938-82.101562-26.585938-40.472656 0-77.042969 17.316407-102.960938 45.058594-17.902344-48.042968-54.082031-46.941406-98.953125-45.570312-8.246093.253906-16.773437.511718-25.753906.511718-55.117187 0-80.96875-5.5-91.472656-8.777343-8.066407-2.515625-16.699219 1.113281-20.53125 8.628906-5.734375 11.257813-16.398438 35.507813-23.359375 71.445313-.789063 4.066406 1.867187 8 5.933594 8.789062 4.066406.789062 8.003906-1.871094 8.789062-5.9375 6.613281-34.132812 16.625-56.933594 22.003906-67.484375.5-.984375 1.632813-1.457031 2.695313-1.125 11.320312 3.535156 38.835937 9.460937 95.941406 9.460937 9.210937 0 17.851563-.265624 26.210937-.519531 47.3125-1.445312 73.871094-2.257812 87.179688 44.175781-7.945312 10.914063-14.296875 22.824219-18.945312 35.515626-12.636719-.898438-25.367188-2.464844-37.679688-5.511719-18.824219-4.65625-37.214844-9.332031-56.765625-9.332031-54.871094 0-90.128906 16.5-110.039063 30.34375-.015624.007812-.03125.019531-.042968.03125-5.835938 4.082031-11.417969 8.582031-16.511719 13.566406.371094-6.851563.921875-13.644532 1.644531-20.324219.441406-4.117187-2.535156-7.816406-6.652344-8.261719-4.117187-.445312-7.816406 2.53125-8.261718 6.648438-1.53125 14.171875-2.308594 28.804687-2.308594 43.496094 0 40.371093 16.304688 76.925781 42.546875 103.214843zm-27.53125-101.078125c.015625-.023437.035156-.050781.050781-.074218 6.894532-10.136719 16.332032-18.550782 26.402344-25.4375 32.773438-22.417969 72.851562-27.125 100.703125-27.125 21.230469 0 40.738281 6.554687 61.296875 10.679687 9.292969 1.863281 18.675781 2.964844 28.097656 3.820313.175782.015624.351563.03125.53125.046874-.605468-.050781-2.726562 13.855469-2.914062 15.164063-2.171875 15.019531-1.964844 30.390625.542968 45.355469 1.429688 8.519531 3.613282 16.949218 6.550782 25.078125.019531.050781.035156.105469.054687.15625 2.910157 8.101562 6.523438 15.953125 10.839844 23.445312-13.15625 19.65625-30.960937 34.875-51.402344 44.558594-7.183593 3.402344-14.722656 6.074219-22.414062 8.078125-19.632813 5.054688-40.453125 5.207031-60.175781.539062-55.546876-13.273437-97.203126-63.816406-98.164063-124.285156zm259.046875 104.800782c-5.488281-.597657-11.394531-.964844-17.65625-.964844-6.171875 0-12.316406.363281-18.417969 1.066406 6.566407-6.125 12.613281-12.917969 18.042969-20.332031 5.378906 7.308593 11.421875 14.082031 18.03125 20.230469zm84.832031 37.46875c3.640625.277343 7.292969.425781 10.945313.425781 8.472656 0 16.960937-.753907 25.296875-2.277344-2.421875 11.746094-12.84375 20.605469-25.296875 20.605469-12.457032 0-22.878906-8.863282-25.296875-20.613282 4.730469.863282 9.519531 1.488282 14.351562 1.859376zm-224.304687.21875c10.378906.550781 20.703125-.125 30.960937-1.746094.640625-.109375 1.277344-.21875 1.917969-.335938-2.417969 11.75-12.84375 20.613282-25.296875 20.613282s-22.875-8.855469-25.296875-20.601563c5.828125 1.066406 11.738281 1.753906 17.714844 2.070313zm-87.960938-22.808594c1.683594-3.5 4.054688-6.257813 7.195313-8.34375 8.355469 6.761718 17.40625 12.535156 26.988281 17.210937.015625.035157.03125.074219.042969.109375 1.183593 3.039063 1.964843 6.324219 1.757812 9.605469-.507812 8.03125-9.042969 15.316406-16.953125 15.316406-4.007812 0-7.796875-1.875-10.953125-4.207031-9.5625-7.058594-12.960937-19.546875-8.078125-29.691406zm11.984375 48.019531c2.296875.574219 4.675781.882813 7.042969.882813 5.492188 0 10.871094-1.597657 16.023438-4.75 9.90625-6.0625 16.496093-16.328126 15.886718-28.175782-.003906-.078125 0-.15625-.003906-.234375 1.265625.429688 2.542969.832031 3.816406 1.222657.769532 21.84375 18.765625 39.378906 40.792969 39.378906 22.019531 0 40.011719-17.527344 40.789063-39.359375 4.757812-1.445313 9.421874-3.140625 13.984374-5.078125.058594.058594.117188.109375.179688.167968 17.914062 16.644532 32.199219 37.75 39.699219 61.105469 3.074219 9.570313 4.96875 19.472657 5.589843 29.503907h-30.953124v-29c0-4.140626-3.359376-7.5-7.5-7.5-4.144532 0-7.5 3.359374-7.5 7.5v29h-108.582032v-29c0-4.140626-3.355468-7.5-7.5-7.5-4.140625 0-7.5 3.359374-7.5 7.5v29h-30.984375c1.167969-18.914063 6.777344-37.25 16.71875-54.664063zm380.511719 54.664063v-29c0-4.140626-3.359375-7.5-7.5-7.5s-7.5 3.359374-7.5 7.5v29h-166.65625c-.003906-.117188-.019531-.234376-.023438-.351563-1.085937-18.699219-6.203124-37.058594-14.519531-53.816406-7.761719-15.636719-18.171875-29.941407-30.394531-42.382813-.054688-.054687-.113281-.117187-.167969-.171875 14.332031-4.519531 29.101563-6.804687 44.042969-6.804687 31.855469 0 53.808594 10.53125 54.011719 10.632812.097656.046875.195312.09375.296875.136719 5.984375 2.792969 12.105468 5.136719 18.335937 7.039063.769531 21.84375 18.765625 39.378906 40.789063 39.378906 22.027344 0 40.023437-17.539063 40.792968-39.382813 1.273438-.390625 2.550782-.792969 3.816407-1.21875-.003907.078125-.003907.15625-.003907.234375-.195312 4.132813.40625 8.320313 1.902344 12.183594 2.289063 5.914062 6.644532 10.917969 11.792969 14.546875 6.773437 4.777344 15.199219 7.242187 23.449219 5.703125.605468-.113281 1.207031-.242188 1.808594-.390625 9.941406 17.414063 15.550781 35.75 16.71875 54.664063zm18.179688-72.992188c-3.160157 2.335938-6.949219 4.207031-10.953126 4.207031-6.28125 0-13.328124-4.832031-15.820312-10.570312-1.992188-4.59375-1.140625-9.832031.621094-14.347657.015625-.039062.03125-.078124.046875-.117187 9.582031-4.675781 18.628906-10.449219 26.980469-17.207031 3.144531 2.085937 5.519531 4.84375 7.203124 8.34375 4.882813 10.144531 1.484376 22.632812-8.078124 29.691406zm-58.378907-25.109375c-19.015625 4.558594-39.125 4.554687-58.140625.007813-42.445312-10.167969-76.773437-42.101563-91.007812-83.597657-3.769532-10.980469-6.050782-22.421875-6.808594-34.003906-.160156-2.457031-.246094-4.90625-.273438-7.367187.378907-.910157.765626-1.816407 1.15625-2.71875 5.945313-13.679688 13.722657-26.96875 24.632813-37.296876 10.527344-9.964843 24.453125-16.34375 38.976563-17.160156 26.972656-1.425781 51.625 14.152344 56.882812 17.714844.609375.414062 1.210938.875 1.863281 1.238281 2.484375 1.378907 5.785157 1.183594 8.089844-.511719.21875-.160156 19.460937-14.132812 43.476563-17.714843 11.492187-1.71875 23.421874-.824219 34.195312 3.707031 11.433594 4.816406 20.941406 13.179688 28.394531 22.988281 6.769531 8.910157 12.039063 18.875 16.367188 29.167969.089843.207031.175781.417969.261719.625-.667969 60.722656-42.375 111.566406-98.066407 124.921875zm0 0"/></svg>