<svg height="512pt" viewBox="0 -164 512 512" width="512pt" xmlns="http://www.w3.org/2000/svg"><path d="m247.742188 68.058594c-.871094 0-1.757813-.140625-2.613282-.425782-3.773437-1.257812-37.25-12.660156-49.945312-25.355468-9.652344-9.65625-9.652344-25.375 0-35.03125 9.65625-9.652344 25.371094-9.667969 35.042968 0 12.691407 12.691406 24.085938 46.164062 25.34375 49.941406.992188 2.96875.21875 6.242188-1.992187 8.453125-1.570313 1.570313-3.683594 2.417969-5.835937 2.417969zm-40.878907-37.457032c4.773438 4.773438 15.871094 10.382813 26.621094 14.933594-4.304687-10.238281-9.878906-21.550781-14.933594-26.613281-3.226562-3.226563-8.460937-3.210937-11.6875 0-3.21875 3.21875-3.21875 8.460937 0 11.679687zm0 0" fill="#ff9a9f"/><path d="m247.742188 68.058594c-2.152344 0-4.265626-.84375-5.839844-2.421875-2.210938-2.207031-2.984375-5.484375-1.992188-8.449219 1.257813-3.777344 12.652344-37.25 25.347656-49.941406 9.667969-9.667969 25.386719-9.652344 35.039063 0 9.652344 9.65625 9.652344 25.375 0 35.03125-12.691406 12.695312-46.167969 24.097656-49.941406 25.355468-.855469.285157-1.742188.425782-2.613281.425782zm35.039062-51.550782c-2.121094 0-4.234375.804688-5.847656 2.414063-4.765625 4.769531-10.378906 15.867187-14.933594 26.617187 10.242188-4.308593 21.554688-9.878906 26.621094-14.9375 3.21875-3.21875 3.21875-8.460937 0-11.679687-1.613282-1.605469-3.726563-2.414063-5.839844-2.414063zm11.679688 19.933594h.078124zm0 0" fill="#ff8086"/><path d="m256 59.796875c-81.113281 0-154.265625-8.707031-207.074219-22.675781-8.71875-2.304688-18.246093-.921875-25.140625 4.894531-14.050781 11.855469-23.785156 37.546875-23.785156 67.332031 0 29.78125 9.734375 55.476563 23.785156 67.332032 6.894532 5.816406 16.421875 7.199218 25.140625 4.894531 52.808594-13.972657 125.960938-22.679688 207.074219-22.679688 85.101562 0 161.433594 9.585938 214.710938 24.773438v-148.644531c-53.277344 15.191406-129.613282 24.773437-214.710938 24.773437zm0 0" fill="#f4dbb3"/><path d="m261.070312 142.378906c-96.160156 0-183.398437 7.910156-248.296874 20.714844 3.207031 5.492188 6.957031 10.164062 11.015624 13.585938 6.890626 5.816406 16.421876 7.199218 25.136719 4.894531 52.808594-13.972657 125.960938-22.679688 207.074219-22.679688 85.101562 0 161.433594 9.585938 214.710938 24.773438v-27.21875c-59.179688-8.839844-131.414063-14.070313-209.640626-14.070313zm0 0" fill="#eac89f"/><path d="m231.226562 109.347656c0-27.367187 14.933594-49.597656 33.175782-49.597656l-33.175782-.242188c-18.242187 0-33.03125 22.472657-33.03125 49.839844 0 27.363282 15.054688 49.816406 33.296876 49.816406l32.808593-.242187c-18.242187 0-33.074219-22.210937-33.074219-49.574219zm0 0" fill="#ff8086"/><path d="m231.226562 158.894531 33.074219.027344c-18.242187 0-33.074219-22.210937-33.074219-49.574219h-33.03125c0 27.363282 14.785157 49.546875 33.03125 49.546875zm0 0" fill="#e5646e"/><path d="m512 109.347656c0-41.046875-18.484375-74.324218-41.289062-74.324218-22.804688 0-41.289063 33.277343-41.289063 74.324218s18.484375 74.320313 41.289063 74.320313c22.804687 0 41.289062-33.273438 41.289062-74.320313zm0 0" fill="#d2af8c"/><path d="m239.484375 109.347656c0 13.679688-11.09375 24.773438-24.773437 24.773438-13.683594 0-24.773438-11.09375-24.773438-24.773438 0-13.683594 11.089844-24.773437 24.773438-24.773437 13.679687 0 24.773437 11.089843 24.773437 24.773437zm0 0" fill="#ff9a9f"/><path d="m440.890625 129.992188c0-18.527344 5.214844-34.863282 13.144531-44.511719 3.023438-3.675781.722656-9.164063-4.039062-9.164063h-16.285156c-2.757813 9.960938-4.289063 21.148438-4.289063 33.03125 0 41.046875 18.484375 74.320313 41.289063 74.320313-16.472657 0-29.820313-24.03125-29.820313-53.675781zm0 0" fill="#eac89f"/><path d="m470.710938 35.023438c-11.660157 0-22.191407 8.707031-29.699219 22.695312 4.527343-3.074219 9.433593-4.800781 14.558593-4.800781 22.804688 0 41.289063 33.273437 41.289063 74.320312 0 20.0625-4.378906 38.28125-11.554687 51.652344 15.621093-10.601563 26.695312-37.722656 26.695312-69.542969 0-41.046875-18.484375-74.324218-41.289062-74.324218zm0 0" fill="#eac89f"/><path d="m222.96875 125.863281c-13.683594 0-24.773438-11.09375-24.773438-24.773437 0-4.71875 1.390626-9.085938 3.679688-12.835938-7.132812 4.347656-11.9375 12.128906-11.9375 21.09375 0 13.679688 11.089844 24.773438 24.773438 24.773438 8.964843 0 16.742187-4.804688 21.09375-11.9375-3.753907 2.289062-8.117188 3.679687-12.835938 3.679687zm0 0" fill="#ff8086"/><path d="m239.710938 142.503906c-11.007813.136719-21.878907.378906-32.59375.714844 6.023437 9.628906 14.878906 15.945312 24.375 15.945312l32.808593-.242187c-9.726562 0-18.542969-6.386719-24.589843-16.417969zm0 0" fill="#db4655"/></svg>